<svg fill="none" height="125" viewBox="0 0 345 125" width="345" xmlns="http://www.w3.org/2000/svg"><path d="m106.477 67.3813c0 1.8738.212 4.08.635 6.6187h-5.712c.121-.3627.181-.7556.181-1.1787.061-.4231.121-.8462.182-1.2693-1.693 1.9342-3.9292 2.9013-6.7097 2.9013-3.5662 0-6.4373-1.2995-8.6133-3.8986-2.1156-2.5991-3.1733-5.4703-3.1733-8.6134 0-3.2035 1.0275-6.1049 3.0826-8.704 2.176-2.5991 4.9263-3.8986 8.2507-3.8986s5.682.9066 7.072 2.72c0-.544-.091-1.088-.272-1.632l5.712-1.088c-.423 2.5386-.635 4.7449-.635 6.6186zm-6.346-12.6026c-1.3301-1.8134-3.0528-2.72-5.1683-2.72-2.0551 0-3.6871.9066-4.896 2.72-1.3298 1.5715-1.9947 3.9289-1.9947 7.072s.6649 5.5306 1.9947 7.1626c1.2089 1.7529 2.8409 2.6294 4.896 2.6294 2.1155 0 3.808-.8463 5.0773-2.5387 1.33-1.6924 1.995-4.1102 1.995-7.2533s-.635-5.5005-1.904-7.072zm14.626 19.2213c.363-2.176.544-4.3822.544-6.6187v-10.336c0-2.176-.181-4.3822-.544-6.6186l5.712-1.088c-.181.6044-.332 1.5715-.453 2.9013 1.571-1.9342 3.536-2.9013 5.893-2.9013 1.33 0 2.599.3022 3.808.9066v4.9867h-.181c-1.209-2.1156-2.72-3.1733-4.533-3.1733-1.753 0-3.174.9369-4.262 2.8106-.665.9067-.997 2.4783-.997 4.7147v7.7973c0 2.3574.242 4.5636.725 6.6187zm19.192 0c.362-2.176.544-4.3822.544-6.6187v-19.4026c0-2.1156-.182-4.3218-.544-6.6187l5.712-1.088c-.484 1.9947-.726 4.2009-.726 6.6187v20.4906c0 2.3574.242 4.5636.726 6.6187zm34.884-6.6187c0 1.8738.211 4.08.634 6.6187h-5.712c.121-.3627.182-.7556.182-1.1787.06-.4231.121-.8462.181-1.2693-1.692 1.9342-3.929 2.9013-6.709 2.9013-3.566 0-6.438-1.2995-8.614-3.8986-2.115-2.5991-3.173-5.4703-3.173-8.6134 0-3.2035 1.028-6.1049 3.083-8.704 2.176-2.5991 4.926-3.8986 8.25-3.8986 3.325 0 5.682.9066 7.072 2.72 0-.544-.09-1.088-.272-1.632l5.712-1.088c-.423 2.5386-.634 4.7449-.634 6.6186zm-6.347-12.6026c-1.33-1.8134-3.052-2.72-5.168-2.72-2.055 0-3.687.9066-4.896 2.72-1.33 1.5715-1.995 3.9289-1.995 7.072s.665 5.5306 1.995 7.1626c1.209 1.7529 2.841 2.6294 4.896 2.6294 2.116 0 3.808-.8463 5.077-2.5387 1.33-1.6924 1.995-4.1102 1.995-7.2533s-.635-5.5005-1.904-7.072z" fill="#000"/><path d="m0 0h81v100h-81z" fill="#000"/><path d="m47.69 14.714-.166-4.814c0-.44267.1383-.664.415-.664.1107 0 .3043.47033.581 1.411.2767.9407.415 2.4347.415 4.482s-.0277 3.4583-.083 4.233c2.2133-.4427 4.2053-.664 5.976-.664 4.98 0 8.8533 1.3003 11.62 3.901 3.0987 2.7667 4.648 6.5017 4.648 11.205v.332c0 .9407-.3873 1.411-1.162 1.411-.4427 0-.9407-.166-1.494-.498-3.7627-2.2687-7.221-4.233-10.375-5.893-3.154-1.7153-6.391-3.0987-9.711-4.15-.8853 7.6913-2.3793 15.77-4.482 24.236-2.5453 9.5727-5.229 17.3193-8.051 23.24.4427.0553 1.162.083 2.158.083 6.0313 0 12.1457-1.5493 18.343-4.648 6.1973-3.154 10.873-7.1933 14.027-12.118l.747-.996c.0553.0553.083.2213.083.498s-.083.581-.249.913c-3.2093 5.5333-8.5213 10.209-15.936 14.027-7.0273 3.486-13.944 5.2843-20.75 5.395-3.5967 6.4187-6.9443 9.628-10.043 9.628-.498 0-.747-.166-.747-.498s.166-.5257.498-.581l1.577-.332c2.5453-.8853 5.146-3.6243 7.802-8.217-5.6993-.166-10.209-1.743-13.529-4.731s-4.98-7.5253-4.98-13.612c0-6.142 2.3793-12.5883 7.138-19.339 4.7587-6.806 10.292-11.8137 16.6-15.023-1.494-.166-3.0157-.249-4.565-.249-1.494 0-3.5967.332-6.308.996-2.656.6087-5.063 1.5493-7.221 2.822-3.2093 1.8813-4.814 3.984-4.814 6.308 0 .2767.0277.498.083.664v.664c0 .7193-.249 1.079-.747 1.079-.664 0-1.162-.4427-1.494-1.328-.4427-.996-.664-1.826-.664-2.49 0-3.2647 2.9327-5.7823 8.798-7.553 4.316-1.2727 8.6043-1.909 12.865-1.909 1.162 0 2.905.1383 5.229.415 3.0987-1.328 5.727-2.241 7.885-2.739.0553-1.162.083-2.7943.083-4.897zm-28.303 40.836c0 4.98 1.3833 8.881 4.15 11.703 2.7667 3.0433 6.5847 4.7587 11.454 5.146 3.0433-6.1973 5.644-13.6673 7.802-22.41s3.652-17.181 4.482-25.315c-2.158-.6087-4.5373-1.1343-7.138-1.577-6.0313 2.8773-10.956 7.3317-14.774 13.363-3.984 6.142-5.976 12.5053-5.976 19.09zm48.472-24.568c.3873 0 .581-.2767.581-.83s-.166-1.2173-.498-1.992c-1.4387-2.49-3.7073-4.3437-6.806-5.561s-6.2527-1.826-9.462-1.826c-.664 0-1.66.0553-2.988.166l-.249 2.822c6.4187 1.328 12.533 3.5967 18.343 6.806.5533.2767.913.415 1.079.415zm-20.418-9.96c-2.324.3873-4.316.913-5.976 1.577 3.818.6087 5.7823.913 5.893.913.0553-.5533.083-1.3833.083-2.49z" fill="#fff"/><path d="m272.808 78c.363-2.176.544-4.3822.544-6.6187v-19.4026c0-2.1156-.181-4.3218-.544-6.6187l5.712-1.088c-.484 1.9947-.725 4.2009-.725 6.6187v20.4906c0 2.3574.241 4.5636.725 6.6187zm35.156-6.6187c0 2.5991.212 4.8054.635 6.6187h-5.712c.06-.3627.091-.7556.091-1.1787.06-.4231.151-.8462.272-1.2693-1.632 1.9342-4.02 2.9013-7.163 2.9013s-5.621-1.1786-7.435-3.536c-1.39-1.7529-2.085-4.0195-2.085-6.8v-7.072c0-2.176-.181-4.3822-.544-6.6186l5.712-1.088c-.484 1.9946-.725 4.2009-.725 6.6186v8.16c0 2.176.332 3.7778.997 4.8054 1.148 1.8133 2.901 2.72 5.259 2.72 4.17 0 6.256-2.5085 6.256-7.5254v-7.072c0-2.176-.212-4.3822-.635-6.6186l5.712-1.088c-.423 1.9946-.635 4.2009-.635 6.6186zm8.141 6.6187c.363-2.176.544-4.3822.544-6.6187v-10.336c0-2.176-.181-4.3822-.544-6.6186l5.712-1.088c-.484 1.9946-.725 4.2009-.725 6.6186v11.424c0 2.3574.241 4.5636.725 6.6187zm2.811-27.8347c-.786 0-1.451-.272-1.995-.816-.544-.6044-.816-1.2995-.816-2.0853s.242-1.5111.725-2.176c.665-.544 1.36-.816 2.086-.816.725 0 1.39.272 1.994.816.605.544.907 1.2391.907 2.0853 0 .7858-.302 1.4809-.907 2.0854-.544.6044-1.209.9066-1.994.9066zm21.012 8.976c-.907-2.0551-2.267-3.0826-4.08-3.0826-.786 0-1.511.2115-2.176.6346-.665.3627-.998 1.0578-.998 2.0854 0 .9671.756 1.904 2.267 2.8106l4.08 2.448c2.78 1.632 4.171 3.7476 4.171 6.3467 0 2.5387-.877 4.5333-2.63 5.984-1.753 1.3902-3.687 2.0853-5.802 2.0853-2.539-.1209-4.111-.3626-4.715-.7253-1.33-.8462-2.267-1.5413-2.811-2.0853v-5.8027h.182c1.39 3.8684 3.808 5.8027 7.253 5.8027 1.33 0 2.418-.4231 3.264-1.2694.846-.8462 1.269-1.9342 1.269-3.264 0-1.3902-.755-2.5386-2.266-3.4453l-3.536-2.0853c-3.023-1.8134-4.534-3.9894-4.534-6.528 0-1.7529.726-3.2338 2.176-4.4427 1.088-.8462 2.539-1.2693 4.352-1.2693 1.814 0 3.385.4231 4.715 1.2693v4.5333z" fill="#000"/><path d="m186 0h81v100h-81z" fill="#000"/><path d="m271.763 73.308c0 2.8773-1.771 5.2567-5.312 7.138-2.933 1.5493-6.114 2.324-9.545 2.324-3.375 0-7.11-.8853-11.205-2.656-4.095-1.7153-9.075-4.1777-14.94-7.387s-9.877-5.2843-12.035-6.225c-3.265 3.7627-6.502 6.64-9.711 8.632-3.154 2.0473-6.834 3.071-11.039 3.071-2.269 0-4.537-.8023-6.806-2.407s-3.403-3.486-3.403-5.644c0-3.0433 1.522-5.3397 4.565-6.889 2.435-1.2727 5.34-1.909 8.715-1.909s7.636.8023 12.782 2.407c1.715-2.324 3.514-5.2567 5.395-8.798-.387.0553-.996.083-1.826.083-11.62 0-17.43-4.1223-17.43-12.367 0-4.3713 2.324-7.802 6.972-10.292.221-.166.415-.249.581-.249.221 0 .332.083.332.249 0 .1107-.028.1937-.083.249-3.486 1.2727-5.229 3.9287-5.229 7.968 0 3.984 1.937 7.221 5.81 9.711 3.32 2.158 7.166 3.2647 11.537 3.32 1.217-2.2687 3.32-6.6123 6.308-13.031s5.506-11.1497 7.553-14.193c4.814-7.1933 9.96-10.79 15.438-10.79.609 0 .913.083.913.249s-.304.249-.913.249c-5.257 0-10.264 3.7073-15.023 11.122-1.549 2.49-3.873 7.055-6.972 13.695-3.099 6.5847-5.146 10.8177-6.142 12.699 1.771 0 3.569-.166 5.395-.498.387-.4427 1.19-2.1027 2.407-4.98 1.051-2.822 1.743-4.5927 2.075-5.312 7.747-17.7067 16.379-26.56 25.896-26.56 1.937 0 3.486.664 4.648 1.992s1.743 3.0157 1.743 5.063c0 8.2447-9.019 16.9873-27.058 26.228-2.324 1.2173-3.873 1.992-4.648 2.324-.719.2767-1.217.498-1.494.664-.443.2213-1.3.6087-2.573 1.162-.443.7747-1.522 2.49-3.237 5.146-1.66 2.6007-3.154 4.7863-4.482 6.557l21.331 8.3c8.743 3.32 15.881 4.98 21.414 4.98 5.589 0 8.383-1.577 8.383-4.731 0-2.0473-.941-4.5097-2.822-7.387.996.6087 1.826 1.577 2.49 2.905.83 1.3833 1.245 2.656 1.245 3.818zm-9.462-51.128c0-1.2173-.498-2.1027-1.494-2.656-.941-.5533-2.075-.83-3.403-.83-6.197 0-13.889 7.885-23.074 23.655-2.711 4.648-4.759 8.051-6.142 10.209 5.367-1.8813 12.118-6.1143 20.252-12.699 9.241-7.47 13.861-13.363 13.861-17.679zm-63.246 51.294c-.775 0-1.162-.1107-1.162-.332 0-.166.387-.249 1.162-.249 5.146 0 9.877-2.822 14.193-8.466-5.091-1.66-9.075-2.49-11.952-2.49-2.822 0-5.506.581-8.051 1.743s-3.818 2.8497-3.818 5.063c0 2.2687 1.079 4.0947 3.237 5.478 1.715 1.2173 3.901 1.826 6.557 1.826s6.004-1.0513 10.043-3.154 6.889-4.316 8.549-6.64c-.775-.498-1.992-1.0237-3.652-1.577-4.537 5.8653-9.573 8.798-15.106 8.798zm26.809-19.173c-2.601.332-4.427.5257-5.478.581-1.771 3.2093-3.652 6.2527-5.644 9.13.553.2213 1.798.6087 3.735 1.162.775-.7747 3.237-4.399 7.387-10.873z" fill="#fff"/><circle cx="318.5" cy="47.5" fill="#fff" r="3.5"/><path d="m324.5 43-9 6v3l9-6.5z" fill="#000"/></svg>