<svg fill="none" height="117" viewBox="0 0 175 117" width="175" xmlns="http://www.w3.org/2000/svg"><path d="m.00000012 58.2c0-18.7733 4.37332988-33.0667 13.11999988-42.88 8.8533-9.92 21.6533-14.880003 38.4-14.880003 15.5733 0 27.52 5.493333 35.84 16.480003l-10.56 8.64c-6.08-8-14.5067-12-25.28-12-11.4133 0-20.16 3.84-26.24 11.52-5.9733 7.5733-8.96 18.6133-8.96 33.12 0 14.9333 3.0933 26.24 9.28 33.92 6.2933 7.68 15.52 11.52 27.68 11.52 8.32 0 17.3333-2.507 27.04-7.52l4.48 12c-3.9467 2.56-8.9067 4.587-14.88 6.08s-12.2667 2.24-18.88 2.24c-16.4267 0-29.0667-5.013-37.92-15.04-8.74667-10.0267-13.11999988-24.4267-13.11999988-43.2zm107.31899988-56.48h15.2v100h51.84v13.28h-67.04z" fill="#fff"/></svg>