<svg width="175" height="117" viewBox="0 0 175 117" fill="none" xmlns="http://www.w3.org/2000/svg">
<path d="M1.19209e-07 58.2C1.19209e-07 39.4267 4.37333 25.1333 13.12 15.32C21.9733 5.4 34.7733 0.439997 51.52 0.439997C67.0933 0.439997 79.04 5.93333 87.36 16.92L76.8 25.56C70.72 17.56 62.2933 13.56 51.52 13.56C40.1067 13.56 31.36 17.4 25.28 25.08C19.3067 32.6533 16.32 43.6933 16.32 58.2C16.32 73.1333 19.4133 84.44 25.6 92.12C31.8933 99.8 41.12 103.64 53.28 103.64C61.6 103.64 70.6133 101.133 80.32 96.12L84.8 108.12C80.8533 110.68 75.8933 112.707 69.92 114.2C63.9467 115.693 57.6533 116.44 51.04 116.44C34.6133 116.44 21.9733 111.427 13.12 101.4C4.37333 91.3733 1.19209e-07 76.9733 1.19209e-07 58.2ZM107.319 1.72H122.519V101.72H174.359V115H107.319V1.72Z" fill="white"/>
</svg>
