<svg width="70" height="85" viewBox="0 0 70 85" fill="none" xmlns="http://www.w3.org/2000/svg">
<rect width="70" height="85" rx="7" fill="black"/>
<path d="M40.8 21.48L40.68 18C40.68 17.68 40.78 17.52 40.98 17.52C41.06 17.52 41.2 17.86 41.4 18.54C41.6 19.22 41.7 20.3 41.7 21.78C41.7 23.26 41.68 24.28 41.64 24.84C43.24 24.52 44.68 24.36 45.96 24.36C49.56 24.36 52.36 25.3 54.36 27.18C56.6 29.18 57.72 31.88 57.72 35.28V35.52C57.72 36.2 57.44 36.54 56.88 36.54C56.56 36.54 56.2 36.42 55.8 36.18C53.08 34.54 50.58 33.12 48.3 31.92C46.02 30.68 43.68 29.68 41.28 28.92C40.64 34.48 39.56 40.32 38.04 46.44C36.2 53.36 34.26 58.96 32.22 63.24C32.54 63.28 33.06 63.3 33.78 63.3C38.14 63.3 42.56 62.18 47.04 59.94C51.52 57.66 54.9 54.74 57.18 51.18L57.72 50.46C57.76 50.5 57.78 50.62 57.78 50.82C57.78 51.02 57.72 51.24 57.6 51.48C55.28 55.48 51.44 58.86 46.08 61.62C41 64.14 36 65.44 31.08 65.52C28.48 70.16 26.06 72.48 23.82 72.48C23.46 72.48 23.28 72.36 23.28 72.12C23.28 71.88 23.4 71.74 23.64 71.7L24.78 71.46C26.62 70.82 28.5 68.84 30.42 65.52C26.3 65.4 23.04 64.26 20.64 62.1C18.24 59.94 17.04 56.66 17.04 52.26C17.04 47.82 18.76 43.16 22.2 38.28C25.64 33.36 29.64 29.74 34.2 27.42C33.12 27.3 32.02 27.24 30.9 27.24C29.82 27.24 28.3 27.48 26.34 27.96C24.42 28.4 22.68 29.08 21.12 30C18.8 31.36 17.64 32.88 17.64 34.56C17.64 34.76 17.66 34.92 17.7 35.04V35.52C17.7 36.04 17.52 36.3 17.16 36.3C16.68 36.3 16.32 35.98 16.08 35.34C15.76 34.62 15.6 34.02 15.6 33.54C15.6 31.18 17.72 29.36 21.96 28.08C25.08 27.16 28.18 26.7 31.26 26.7C32.1 26.7 33.36 26.8 35.04 27C37.28 26.04 39.18 25.38 40.74 25.02C40.78 24.18 40.8 23 40.8 21.48ZM20.34 51C20.34 54.6 21.34 57.42 23.34 59.46C25.34 61.66 28.1 62.9 31.62 63.18C33.82 58.7 35.7 53.3 37.26 46.98C38.82 40.66 39.9 34.56 40.5 28.68C38.94 28.24 37.22 27.86 35.34 27.54C30.98 29.62 27.42 32.84 24.66 37.2C21.78 41.64 20.34 46.24 20.34 51ZM55.38 33.24C55.66 33.24 55.8 33.04 55.8 32.64C55.8 32.24 55.68 31.76 55.44 31.2C54.4 29.4 52.76 28.06 50.52 27.18C48.28 26.3 46 25.86 43.68 25.86C43.2 25.86 42.48 25.9 41.52 25.98L41.34 28.02C45.98 28.98 50.4 30.62 54.6 32.94C55 33.14 55.26 33.24 55.38 33.24ZM40.62 26.04C38.94 26.32 37.5 26.7 36.3 27.18C39.06 27.62 40.48 27.84 40.56 27.84C40.6 27.44 40.62 26.84 40.62 26.04Z" fill="white"/>
</svg>
