<svg fill="none" height="85" viewBox="0 0 70 85" width="70" xmlns="http://www.w3.org/2000/svg"><rect fill="#000" height="85" rx="7" width="70"/><path d="m40.8 21.48-.12-3.48c0-.32.1-.48.3-.48.08 0 .22.34.42 1.02s.3 1.76.3 3.24-.02 2.5-.06 3.06c1.6-.32 3.04-.48 4.32-.48 3.6 0 6.4.94 8.4 2.82 2.24 2 3.36 4.7 3.36 8.1v.24c0 .68-.28 1.02-.84 1.02-.32 0-.68-.12-1.08-.36-2.72-1.64-5.22-3.06-7.5-4.26-2.28-1.24-4.62-2.24-7.02-3-.64 5.56-1.72 11.4-3.24 17.52-1.84 6.92-3.78 12.52-5.82 16.8.32.04.84.06 1.56.06 4.36 0 8.78-1.12 13.26-3.36 4.48-2.28 7.86-5.2 10.14-8.76l.54-.72c.04.04.06.16.06.36s-.06.42-.18.66c-2.32 4-6.16 7.38-11.52 10.14-5.08 2.52-10.08 3.82-15 3.9-2.6 4.64-5.02 6.96-7.26 6.96-.36 0-.54-.12-.54-.36s.12-.38.36-.42l1.14-.24c1.84-.64 3.72-2.62 5.64-5.94-4.12-.12-7.38-1.26-9.78-3.42s-3.6-5.44-3.6-9.84c0-4.44 1.72-9.1 5.16-13.98 3.44-4.92 7.44-8.54 12-10.86-1.08-.12-2.18-.18-3.3-.18-1.08 0-2.6.24-4.56.72-1.92.44-3.66 1.12-5.22 2.04-2.32 1.36-3.48 2.88-3.48 4.56 0 .2.02.36.06.48v.48c0 .52-.18.78-.54.78-.48 0-.84-.32-1.08-.96-.32-.72-.48-1.32-.48-1.8 0-2.36 2.12-4.18 6.36-5.46 3.12-.92 6.22-1.38 9.3-1.38.84 0 2.1.1 3.78.3 2.24-.96 4.14-1.62 5.7-1.98.04-.84.06-2.02.06-3.54zm-20.46 29.52c0 3.6 1 6.42 3 8.46 2 2.2 4.76 3.44 8.28 3.72 2.2-4.48 4.08-9.88 5.64-16.2s2.64-12.42 3.24-18.3c-1.56-.44-3.28-.82-5.16-1.14-4.36 2.08-7.92 5.3-10.68 9.66-2.88 4.44-4.32 9.04-4.32 13.8zm35.04-17.76c.28 0 .42-.2.42-.6s-.12-.88-.36-1.44c-1.04-1.8-2.68-3.14-4.92-4.02s-4.52-1.32-6.84-1.32c-.48 0-1.2.04-2.16.12l-.18 2.04c4.64.96 9.06 2.6 13.26 4.92.4.2.66.3.78.3zm-14.76-7.2c-1.68.28-3.12.66-4.32 1.14 2.76.44 4.18.66 4.26.66.04-.4.06-1 .06-1.8z" fill="#fff"/></svg>