<svg fill="none" height="85" viewBox="0 0 71 85" width="71" xmlns="http://www.w3.org/2000/svg"><rect fill="#000" height="85" rx="5" width="70"/><path d="m34.7 18.5-.12-3.3c0-.28.08-.42.24-.42.04 0 .1.1.18.3.24 1.4.36 2.72.36 3.96v2.58c3.4.48 6.76 1.08 10.08 1.8 3.24-4.2 6.42-6.3 9.54-6.3 3.16 0 4.74 1.22 4.74 3.66 0 .44-.1.66-.3.66-.16 0-.24-.18-.24-.54 0-.96-.38-1.64-1.14-2.04-.64-.4-1.44-.6-2.4-.6-2.56 0-5.12 1.86-7.68 5.58 7 1.4 11.64 2.1 13.92 2.1 4.92 0 7.38-1.06 7.38-3.18 0-.36-.08-.64-.24-.84-.12-.32-.18-.5-.18-.54 0-.08.04-.12.12-.12.36 0 .64.34.84 1.02.2.64.3 1.14.3 1.5 0 2.76-2.22 4.14-6.66 4.14-2.52 0-7.96-.92-16.32-2.76-1.36 2.28-3.84 7.14-7.44 14.58 1.64-.52 4.36-.78 8.16-.78s7.04.46 9.72 1.38c.2.08.3.18.3.3 0 .08-.1.12-.3.12l-4.32-.3c-3.4 0-6.3.24-8.7.72-4.36.76-6.54 2.1-6.54 4.02 0 .24.1.62.3 1.14v.06c-.44 0-.86-.48-1.26-1.44-2.32 4.36-4.62 7.86-6.9 10.5 4.52 1.36 8.86 2.64 13.02 3.84 4.2 1.2 7.64 1.8 10.32 1.8 2.72 0 4.82-.34 6.3-1.02 2.04-.88 3.06-2.24 3.06-4.08 0-1.36-.6-3.02-1.8-4.98l-1.74-2.88c0-.04.04-.06.12-.06.12 0 .32.14.6.42 2.48 2.04 3.72 4.4 3.72 7.08s-.94 4.76-2.82 6.24c-1.84 1.52-4.12 2.28-6.84 2.28s-6.82-1.06-12.3-3.18c-5.44-2.08-9.56-3.64-12.36-4.68-4 4.36-8.46 6.54-13.38 6.54-1.6 0-3.26-.48-4.98-1.44-1.72-.92-2.58-2.24-2.58-3.96s.86-3 2.58-3.84 3.52-1.26 5.4-1.26c1.92 0 4.26.42 7.02 1.26 3-3.4 5.48-8.04 7.44-13.92 2-5.92 3.2-11.56 3.6-16.92-2.76-.32-4.98-.48-6.66-.48-7.24 0-10.86 2.48-10.86 7.44 0 3.28 1.88 6.24 5.64 8.88.2.08.3.18.3.3s-.06.18-.18.18-.26-.04-.42-.12c-5.04-2.88-7.56-6.32-7.56-10.32 0-2.24.94-4.04 2.82-5.4 2-1.52 5.06-2.28 9.18-2.28 1.8 0 4.4.2 7.8.6.08-1.36.12-2.36.12-3zm9.84 6.12c-2.68-.6-5.76-1.2-9.24-1.8-.28 5.24-1.36 10.82-3.24 16.74-1.88 5.88-4.38 10.66-7.5 14.34l2.58.78c1.84-1.84 4.18-5.6 7.02-11.28.4-.8 1.14-2.3 2.22-4.5 3.2-6.52 5.92-11.28 8.16-14.28zm-29.28 34.5c-.76 0-1.14-.14-1.14-.42 0-.2.34-.3 1.02-.3 2.6 0 5.2-1.4 7.8-4.2-2.16-.68-4.16-1.02-6-1.02-1.8 0-3.32.28-4.56.84-1.68.76-2.52 1.86-2.52 3.3s.64 2.52 1.92 3.24c1.12.68 2.5 1.02 4.14 1.02s3.56-.64 5.76-1.92 3.9-2.7 5.1-4.26l-2.76-.9c-2.8 3.08-5.72 4.62-8.76 4.62z" fill="#fff"/></svg>