<svg fill="none" height="85" viewBox="0 0 70 85" width="70" xmlns="http://www.w3.org/2000/svg"><rect fill="#000" height="85" rx="5" width="70"/><path d="m65.66 60.56c0 2.08-1.28 3.8-3.84 5.16-2.12 1.12-4.42 1.68-6.9 1.68-2.44 0-5.14-.64-8.1-1.92-2.96-1.24-6.56-3.02-10.8-5.34s-7.14-3.82-8.7-4.5c-2.36 2.72-4.7 4.8-7.02 6.24-2.28 1.48-4.94 2.22-7.98 2.22-1.64 0-3.28-.58-4.92-1.74s-2.46-2.52-2.46-4.08c0-2.2 1.1-3.86 3.3-4.98 1.76-.92 3.86-1.38 6.3-1.38s5.52.58 9.24 1.74c1.24-1.68 2.54-3.8 3.9-6.36-.28.04-.72.06-1.32.06-8.4 0-12.6-2.98-12.6-8.94 0-3.16 1.68-5.64 5.04-7.44.16-.12.3-.18.42-.18.16 0 .24.06.24.18 0 .08-.02.14-.06.18-2.52.92-3.78 2.84-3.78 5.76 0 2.88 1.4 5.22 4.2 7.02 2.4 1.56 5.18 2.36 8.34 2.4.88-1.64 2.4-4.78 4.56-9.42s3.98-8.06 5.46-10.26c3.48-5.2 7.2-7.8 11.16-7.8.44 0 .66.06.66.18s-.22.18-.66.18c-3.8 0-7.42 2.68-10.86 8.04-1.12 1.8-2.8 5.1-5.04 9.9-2.24 4.76-3.72 7.82-4.44 9.18 1.28 0 2.58-.12 3.9-.36.28-.32.86-1.52 1.74-3.6.76-2.04 1.26-3.32 1.5-3.84 5.6-12.8 11.84-19.2 18.72-19.2 1.4 0 2.52.48 3.36 1.44s1.26 2.18 1.26 3.66c0 5.96-6.52 12.28-19.56 18.96-1.68.88-2.8 1.44-3.36 1.68-.52.2-.88.36-1.08.48-.32.16-.94.44-1.86.84-.32.56-1.1 1.8-2.34 3.72-1.2 1.88-2.28 3.46-3.24 4.74l15.42 6c6.32 2.4 11.48 3.6 15.48 3.6 4.04 0 6.06-1.14 6.06-3.42 0-1.48-.68-3.26-2.04-5.34.72.44 1.32 1.14 1.8 2.1.6 1 .9 1.92.9 2.76zm-6.84-36.96c0-.88-.36-1.52-1.08-1.92-.68-.4-1.5-.6-2.46-.6-4.48 0-10.04 5.7-16.68 17.1-1.96 3.36-3.44 5.82-4.44 7.38 3.88-1.36 8.76-4.42 14.64-9.18 6.68-5.4 10.02-9.66 10.02-12.78zm-45.72 37.08c-.56 0-.84-.08-.84-.24 0-.12.28-.18.84-.18 3.72 0 7.14-2.04 10.26-6.12-3.68-1.2-6.56-1.8-8.64-1.8-2.04 0-3.98.42-5.82 1.26s-2.76 2.06-2.76 3.66c0 1.64.78 2.96 2.34 3.96 1.24.88 2.82 1.32 4.74 1.32s4.34-.76 7.26-2.28 4.98-3.12 6.18-4.8c-.56-.36-1.44-.74-2.64-1.14-3.28 4.24-6.92 6.36-10.92 6.36zm19.38-13.86c-1.88.24-3.2.38-3.96.42-1.28 2.32-2.64 4.52-4.08 6.6.4.16 1.3.44 2.7.84.56-.56 2.34-3.18 5.34-7.86z" fill="#fff"/></svg>