<svg width="70" height="85" viewBox="0 0 70 85" fill="none" xmlns="http://www.w3.org/2000/svg">
<rect width="70" height="85" rx="5" fill="black"/>
<path d="M65.66 60.56C65.66 62.64 64.38 64.36 61.82 65.72C59.7 66.84 57.4 67.4 54.92 67.4C52.48 67.4 49.78 66.76 46.82 65.48C43.86 64.24 40.26 62.46 36.02 60.14C31.78 57.82 28.88 56.32 27.32 55.64C24.96 58.36 22.62 60.44 20.3 61.88C18.02 63.36 15.36 64.1 12.32 64.1C10.68 64.1 9.04 63.52 7.4 62.36C5.76 61.2 4.94 59.84 4.94 58.28C4.94 56.08 6.04 54.42 8.24 53.3C10 52.38 12.1 51.92 14.54 51.92C16.98 51.92 20.06 52.5 23.78 53.66C25.02 51.98 26.32 49.86 27.68 47.3C27.4 47.34 26.96 47.36 26.36 47.36C17.96 47.36 13.76 44.38 13.76 38.42C13.76 35.26 15.44 32.78 18.8 30.98C18.96 30.86 19.1 30.8 19.22 30.8C19.38 30.8 19.46 30.86 19.46 30.98C19.46 31.06 19.44 31.12 19.4 31.16C16.88 32.08 15.62 34 15.62 36.92C15.62 39.8 17.02 42.14 19.82 43.94C22.22 45.5 25 46.3 28.16 46.34C29.04 44.7 30.56 41.56 32.72 36.92C34.88 32.28 36.7 28.86 38.18 26.66C41.66 21.46 45.38 18.86 49.34 18.86C49.78 18.86 50 18.92 50 19.04C50 19.16 49.78 19.22 49.34 19.22C45.54 19.22 41.92 21.9 38.48 27.26C37.36 29.06 35.68 32.36 33.44 37.16C31.2 41.92 29.72 44.98 29 46.34C30.28 46.34 31.58 46.22 32.9 45.98C33.18 45.66 33.76 44.46 34.64 42.38C35.4 40.34 35.9 39.06 36.14 38.54C41.74 25.74 47.98 19.34 54.86 19.34C56.26 19.34 57.38 19.82 58.22 20.78C59.06 21.74 59.48 22.96 59.48 24.44C59.48 30.4 52.96 36.72 39.92 43.4C38.24 44.28 37.12 44.84 36.56 45.08C36.04 45.28 35.68 45.44 35.48 45.56C35.16 45.72 34.54 46 33.62 46.4C33.3 46.96 32.52 48.2 31.28 50.12C30.08 52 29 53.58 28.04 54.86L43.46 60.86C49.78 63.26 54.94 64.46 58.94 64.46C62.98 64.46 65 63.32 65 61.04C65 59.56 64.32 57.78 62.96 55.7C63.68 56.14 64.28 56.84 64.76 57.8C65.36 58.8 65.66 59.72 65.66 60.56ZM58.82 23.6C58.82 22.72 58.46 22.08 57.74 21.68C57.06 21.28 56.24 21.08 55.28 21.08C50.8 21.08 45.24 26.78 38.6 38.18C36.64 41.54 35.16 44 34.16 45.56C38.04 44.2 42.92 41.14 48.8 36.38C55.48 30.98 58.82 26.72 58.82 23.6ZM13.1 60.68C12.54 60.68 12.26 60.6 12.26 60.44C12.26 60.32 12.54 60.26 13.1 60.26C16.82 60.26 20.24 58.22 23.36 54.14C19.68 52.94 16.8 52.34 14.72 52.34C12.68 52.34 10.74 52.76 8.9 53.6C7.06 54.44 6.14 55.66 6.14 57.26C6.14 58.9 6.92 60.22 8.48 61.22C9.72 62.1 11.3 62.54 13.22 62.54C15.14 62.54 17.56 61.78 20.48 60.26C23.4 58.74 25.46 57.14 26.66 55.46C26.1 55.1 25.22 54.72 24.02 54.32C20.74 58.56 17.1 60.68 13.1 60.68ZM32.48 46.82C30.6 47.06 29.28 47.2 28.52 47.24C27.24 49.56 25.88 51.76 24.44 53.84C24.84 54 25.74 54.28 27.14 54.68C27.7 54.12 29.48 51.5 32.48 46.82Z" fill="white"/>
</svg>
