<svg fill="none" height="114" viewBox="0 0 171 114" width="171" xmlns="http://www.w3.org/2000/svg"><path d="m34.04.719999c12.9067 0 22.6133 2.933331 29.12 8.799991 6.5067 5.76001 9.76 13.92001 9.76 24.48001 0 10.4533-3.36 18.6667-10.08 24.64-6.6133 5.8667-16.2133 8.8-28.8 8.8h-18.08v46.56h-15.36v-113.280001zm0 53.920001c7.36 0 13.0133-1.76 16.96-5.28s5.92-8.64 5.92-15.36-1.9733-11.7867-5.92-15.2c-3.84-3.52-9.4933-5.28-16.96-5.28h-18.08v41.12zm115.038-.16c7.253 2.0267 12.693 5.28 16.32 9.76 3.733 4.3733 5.6 9.8133 5.6 16.32 0 10.4533-3.36 18.6667-10.08 24.64-6.614 5.867-16.214 8.8-28.8 8.8h-38.0805v-113.280001h33.4395c12.907 0 22.614 2.613331 29.121 7.839991 6.506 5.22671 9.76 12.64001 9.76 22.24001 0 11.4133-5.76 19.3067-17.28 23.68zm-39.84-40.96v35.52h18.239c7.467 0 13.121-1.4933 16.961-4.48 3.946-3.0933 5.92-7.68 5.92-13.76 0-11.52-7.627-17.28-22.881-17.28zm22.88 87.68c7.36 0 13.013-1.76 16.96-5.28 3.946-3.52 5.92-8.64 5.92-15.36 0-6.1867-2.187-10.8267-6.56-13.92-4.267-3.2-10.507-4.8-18.72-4.8h-20.48v39.36z" fill="#fff"/></svg>