<svg width="70" height="85" viewBox="0 0 70 85" fill="none" xmlns="http://www.w3.org/2000/svg">
<rect width="70" height="85" rx="5" fill="black"/>
<path d="M22.34 44.9C21.98 43.46 20.98 42.74 19.34 42.74C16.5 42.74 14.22 44.16 12.5 47C10.94 49.48 10.16 52.08 10.16 54.8C10.16 57.52 10.76 59.66 11.96 61.22C13.2 63.02 15.08 63.92 17.6 63.92C22.32 63.92 26.9 60.74 31.34 54.38C37.22 45.74 41.06 37.2 42.86 28.76C42.9 28.6 43 28.16 43.16 27.44C43.32 26.72 43.46 26.1 43.58 25.58C43.86 24.38 44.64 23.78 45.92 23.78C46.64 23.78 47 24.08 47 24.68C47 25.12 46.86 25.92 46.58 27.08C45.5 32.32 43.62 37.76 40.94 43.4H41.9C45.18 43.4 48.88 42.82 53 41.66C59.84 39.7 63.26 36.4 63.26 31.76C63.26 28.92 61.94 26.42 59.3 24.26C57.38 22.58 54.76 21.26 51.44 20.3C48.56 19.54 45.54 19.16 42.38 19.16H41.24C40.96 23.36 39.94 28.12 38.18 33.44C36.3 38.84 34.12 43.66 31.64 47.9C28.4 53.66 25.12 57.72 21.8 60.08C19.88 61.44 18.28 62.12 17 62.12C16.64 62.12 16.46 61.98 16.46 61.7C16.46 61.46 16.62 61.32 16.94 61.28C18.18 61.08 19.08 60.84 19.64 60.56C23.32 58.76 27.08 54.56 30.92 47.96C33.76 42.96 36 37.9 37.64 32.78C39.28 27.62 40.22 23.1 40.46 19.22C36.86 19.38 33.22 20.04 29.54 21.2C25.9 22.36 22.92 24.14 20.6 26.54C19.08 28.06 18.32 29.7 18.32 31.46C18.32 33.22 18.84 34.7 19.88 35.9C20.76 37.06 21.96 37.9 23.48 38.42C24.16 38.66 24.76 38.86 25.28 39.02C25.84 39.14 26.12 39.26 26.12 39.38C26.12 39.58 25.96 39.64 25.64 39.56H25.58C23.14 39.2 20.86 38.16 18.74 36.44C16.62 34.72 15.56 32.7 15.56 30.38C15.56 28.7 16.26 27.16 17.66 25.76C20.02 23.36 23.34 21.56 27.62 20.36C31.9 19.16 36.22 18.46 40.58 18.26V14.42C40.58 14.1 40.7 13.94 40.94 13.94C41.18 13.94 41.3 14.58 41.3 15.86C41.3 17.14 41.3 17.92 41.3 18.2H44C46.88 18.2 49.88 18.5 53 19.1C56.56 19.9 59.46 21.08 61.7 22.64C64.74 24.76 66.26 27.34 66.26 30.38C66.26 33.38 64.8 36.04 61.88 38.36C59.64 40.2 56.74 41.66 53.18 42.74C49.62 43.78 45.8 44.3 41.72 44.3C41.32 44.3 40.92 44.3 40.52 44.3C33.96 57.82 26.38 64.58 17.78 64.58C14.82 64.58 12.46 63.62 10.7 61.7C8.94 59.82 8.06 57.3 8.06 54.14C8.06 50.94 9.04 48.06 11 45.5C13 42.94 15.58 41.66 18.74 41.66C19.66 41.66 20.5 41.92 21.26 42.44C22.1 42.88 22.52 43.56 22.52 44.48C22.52 44.72 22.46 44.86 22.34 44.9Z" fill="white"/>
</svg>
