<svg fill="none" height="85" viewBox="0 0 70 85" width="70" xmlns="http://www.w3.org/2000/svg"><rect fill="#000" height="85" rx="5" width="70"/><path d="m22.34 44.9c-.36-1.44-1.36-2.16-3-2.16-2.84 0-5.12 1.42-6.84 4.26-1.56 2.48-2.34 5.08-2.34 7.8s.6 4.86 1.8 6.42c1.24 1.8 3.12 2.7 5.64 2.7 4.72 0 9.3-3.18 13.74-9.54 5.88-8.64 9.72-17.18 11.52-25.62.04-.16.14-.6.3-1.32s.3-1.34.42-1.86c.28-1.2 1.06-1.8 2.34-1.8.72 0 1.08.3 1.08.9 0 .44-.14 1.24-.42 2.4-1.08 5.24-2.96 10.68-5.64 16.32h.96c3.28 0 6.98-.58 11.1-1.74 6.84-1.96 10.26-5.26 10.26-9.9 0-2.84-1.32-5.34-3.96-7.5-1.92-1.68-4.54-3-7.86-3.96-2.88-.76-5.9-1.14-9.06-1.14h-1.14c-.28 4.2-1.3 8.96-3.06 14.28-1.88 5.4-4.06 10.22-6.54 14.46-3.24 5.76-6.52 9.82-9.84 12.18-1.92 1.36-3.52 2.04-4.8 2.04-.36 0-.54-.14-.54-.42 0-.24.16-.38.48-.42 1.24-.2 2.14-.44 2.7-.72 3.68-1.8 7.44-6 11.28-12.6 2.84-5 5.08-10.06 6.72-15.18 1.64-5.16 2.58-9.68 2.82-13.56-3.6.16-7.24.82-10.92 1.98-3.64 1.16-6.62 2.94-8.94 5.34-1.52 1.52-2.28 3.16-2.28 4.92s.52 3.24 1.56 4.44c.88 1.16 2.08 2 3.6 2.52.68.24 1.28.44 1.8.6.56.12.84.24.84.36 0 .2-.16.26-.48.18h-.06c-2.44-.36-4.72-1.4-6.84-3.12s-3.18-3.74-3.18-6.06c0-1.68.7-3.22 2.1-4.62 2.36-2.4 5.68-4.2 9.96-5.4s8.6-1.9 12.96-2.1v-3.84c0-.32.12-.48.36-.48s.36.64.36 1.92v2.34h2.7c2.88 0 5.88.3 9 .9 3.56.8 6.46 1.98 8.7 3.54 3.04 2.12 4.56 4.7 4.56 7.74 0 3-1.46 5.66-4.38 7.98-2.24 1.84-5.14 3.3-8.7 4.38-3.56 1.04-7.38 1.56-11.46 1.56-.4 0-.8 0-1.2 0-6.56 13.52-14.14 20.28-22.74 20.28-2.96 0-5.32-.96-7.08-2.88-1.76-1.88-2.64-4.4-2.64-7.56 0-3.2.98-6.08 2.94-8.64 2-2.56 4.58-3.84 7.74-3.84.92 0 1.76.26 2.52.78.84.44 1.26 1.12 1.26 2.04 0 .24-.06.38-.18.42z" fill="#fff"/></svg>